 ######## ######## ######## ##          ######## ########  ######## ######## 
 ##       ##       ##       ##          ##       ##     ## ##       ##       
 ##       ##       ##       ##          ##       ##     ## ##       ##       
 ######   ######   ######   ##          ######   ########  ######   ######   
 ##       ##       ##       ##          ##       ##   ##   ##       ##       
 ##       ##       ##       ##          ##       ##    ##  ##       ##       
 ##       ######## ######## ########    ##       ##     ## ######## ######## 

 Genre:Comedy | Drama | Romance 
 Language:English
 IMDb:  http://www.imdb.com/title/tt0491152/
 Source:RUSSIAN/IMAGINE Thanks!

 Format : MPEG-4
 Format profile : Base Media
 Codec ID : isom
 File size : 941 MiB
 Duration : 1h 47mn
 Overall bit rate : 1 220 Kbps

 Video
 Format profile : High@L4.1
 Format settings, CABAC : Yes
 Format settings, ReFrames : 3 frames
 Codec ID : avc1
 Codec ID/Info : Advanced Video Coding
 Duration : 1h 47mn
 Bit rate mode : Variable
 Bit rate : 992 Kbps
 Maximum bit rate : 5 466 Kbps
 Width : 720 pixels
 Height : 384 pixels
 Display aspect ratio : 1.875
 Frame rate mode : Constant
 Frame rate : 25.000 fps
 Color space : YUV
 Chroma subsampling : 4:2:0
 Bit depth : 8 bits
 Scan type : Progressive
 Bits/(Pixel*Frame) : 0.144
 Stream size : 770 MiB (82%)
 Writing library : x264

 Audio
 ID : 2
 Format : AAC
 Format/Info : Advanced Audio Codec
 Format version : Version 4
 Format profile : LC
 Format settings, SBR : No
 Codec ID : 40
 Duration : 1h 47mn
 Bit rate mode : Variable
 Bit rate : 218 Kbps
 Maximum bit rate : 250 Kbps
 Channel(s) : 1 channel
 Channel positions : Front: C
 Sampling rate : 44.1 KHz
 Stream size : 168 MiB (18%)

 Plot:
 Friendships are tested and secrets come to the surface when terminally single Rachel falls for Dex, her best friend Darcy's fiancΘ.

 ######## ######## ######## ##          ######## ########  ######## ######## 
 ##       ##       ##       ##          ##       ##     ## ##       ##       
 ##       ##       ##       ##          ##       ##     ## ##       ##       
 ######   ######   ######   ##          ######   ########  ######   ######   
 ##       ##       ##       ##          ##       ##   ##   ##       ##       
 ##       ##       ##       ##          ##       ##    ##  ##       ##       
 ##       ######## ######## ########    ##       ##     ## ######## ######## 